<svg xmlns="http://www.w3.org/2000/svg" viewBox="0 0 603 182">
  <path fill="#f90" d="M374.00 142.06C339.63 167.82 289.62 181.50 247.04 181.50C186.58 181.50 132.18 159.27 90.88 122.49C87.71 119.63 90.52 115.73 94.28 117.99C138.78 144.07 193.88 159.88 250.86 159.88C289.18 159.88 331.00 151.90 369.56 135.38C375.22 133.00 380.00 139.14 374.00 142.06Z"/>
  <path fill="#f90" d="M387.82 126.30C383.54 120.88 358.97 123.80 347.96 125.10C344.66 125.50 344.14 122.62 347.12 120.52C366.70 106.64 399.20 110.60 402.88 115.12C406.56 119.68 401.90 152.18 383.54 167.72C380.74 170.10 378.06 168.84 379.30 165.74C383.22 155.94 392.12 131.76 387.82 126.30Z"/>
  <path fill="#221f1f" d="M348.64 19.38L348.64 6.22C348.64 4.26 350.12 2.94 351.92 2.94L412.30 2.94C414.18 2.94 415.66 4.30 415.66 6.22L415.66 17.82C415.62 19.66 413.98 22.10 411.30 25.82L379.54 72.02C391.42 71.74 403.98 73.38 414.74 79.42C417.14 80.78 417.82 82.82 418.02 84.74L418.02 98.78C418.02 100.74 415.86 103.02 413.58 101.82C393.76 91.42 367.58 90.30 345.72 101.94C343.62 103.06 341.42 100.82 341.42 98.86L341.42 85.42C341.42 83.22 341.46 79.34 343.66 76.10L380.50 22.38L352.00 22.38C350.12 22.38 348.64 21.06 348.64 19.38Z"/>
  <path fill="#221f1f" d="M124.78 105.38L104.06 105.38C102.38 105.26 101.02 103.98 100.90 102.38L100.90 6.38C100.90 4.58 102.42 3.14 104.30 3.14L123.70 3.14C125.42 3.22 126.82 4.54 126.94 6.18L126.94 18.46L127.30 18.46C131.58 7.10 139.06 1.82 149.46 1.82C160.06 1.82 166.78 7.10 171.82 18.46C176.10 7.10 185.14 1.82 195.14 1.82C202.22 1.82 209.94 4.66 214.62 11.22C219.90 18.54 218.82 29.22 218.82 38.34L218.78 102.18C218.78 103.98 217.26 105.38 215.38 105.38L194.70 105.38C192.94 105.26 191.54 103.90 191.54 102.18L191.54 47.06C191.54 43.58 191.86 35.06 191.14 31.74C190.06 26.26 186.90 24.78 182.82 24.78C179.50 24.78 175.98 27.02 174.50 30.62C173.02 34.22 173.18 40.22 173.18 47.06L173.18 102.18C173.18 103.98 171.66 105.38 169.78 105.38L149.10 105.38C147.30 105.26 145.94 103.90 145.94 102.18L145.90 47.06C145.90 37.14 147.58 24.58 135.46 24.58C123.18 24.58 123.66 36.82 123.66 47.06L123.66 102.18C123.66 103.98 122.14 105.38 124.78 105.38Z"/>
  <path fill="#221f1f" d="M459.66 1.82C482.98 1.82 495.54 24.58 495.54 53.78C495.54 82.06 481.82 104.26 459.66 104.26C436.58 104.26 424.22 81.50 424.22 53.02C424.22 24.38 436.74 1.82 459.66 1.82ZM459.82 20.26C447.30 20.26 446.58 37.14 446.58 47.82C446.58 58.54 446.38 84.98 459.66 84.98C472.78 84.98 473.30 66.78 473.30 55.58C473.30 48.26 473.02 39.58 470.94 32.70C469.14 26.74 465.62 20.26 459.82 20.26Z"/>
  <path fill="#221f1f" d="M523.78 105.38L503.18 105.38C501.38 105.26 499.98 103.90 499.98 102.18L499.94 6.10C500.10 4.46 501.54 3.14 503.30 3.14L522.50 3.14C524.06 3.22 525.34 4.30 525.62 5.78L525.62 20.26L526.02 20.26C530.90 7.42 536.74 1.82 548.30 1.82C555.78 1.82 563.06 4.46 567.74 11.98C572.10 18.86 572.10 30.34 572.10 38.70L572.10 102.54C571.86 104.10 570.42 105.38 568.70 105.38L547.94 105.38C546.34 105.26 545.02 104.02 544.82 102.54L544.82 46.30C544.82 36.58 546.10 24.38 534.82 24.38C531.50 24.38 528.42 26.62 526.78 30.02C524.70 34.26 524.42 38.46 524.42 46.30L524.42 102.18C524.38 103.98 522.86 105.38 523.78 105.38Z"/>
  <path fill="#221f1f" d="M266.58 60.14C266.58 66.54 266.78 71.86 263.58 77.58C261.02 82.26 256.98 85.14 252.50 85.14C246.30 85.14 242.74 80.34 242.74 73.26C242.74 59.34 255.30 56.66 266.58 56.66L266.58 60.14ZM287.50 105.10C286.26 106.22 284.42 106.30 283.02 105.54C276.86 100.34 275.78 97.94 272.38 93.02C262.22 103.42 254.90 106.54 241.62 106.54C225.90 106.54 213.74 96.82 213.74 77.58C213.74 62.50 221.90 52.26 233.62 47.26C243.82 42.82 258.14 42.06 266.58 41.10L266.58 38.78C266.58 34.54 266.90 29.50 264.50 25.86C262.38 22.58 258.30 21.22 254.78 21.22C248.18 21.22 242.30 25.62 240.90 32.62C240.62 34.14 239.50 35.62 237.98 35.70L217.94 33.54C216.58 33.22 215.06 32.10 215.42 30.06C220.06 5.22 242.70 -1.70 263.26 -1.70C273.78 -1.70 287.50 1.14 295.78 9.22C306.30 19.02 305.26 32.26 305.26 46.54L305.26 77.54C305.26 87.30 309.38 91.62 313.26 96.94C314.58 98.82 314.86 101.06 313.18 102.42C309.06 105.90 301.74 112.18 297.70 115.86L297.66 115.82C296.86 116.50 287.50 105.10 287.50 105.10Z"/>
  <path fill="#221f1f" d="M60.78 60.14C60.78 66.54 60.98 71.86 57.78 77.58C55.22 82.26 51.22 85.14 46.70 85.14C40.50 85.14 36.98 80.34 36.98 73.26C36.98 59.34 49.54 56.66 60.78 56.66L60.78 60.14ZM81.74 105.10C80.50 106.22 78.66 106.30 77.26 105.54C71.10 100.34 70.02 97.94 66.62 93.02C56.46 103.42 49.14 106.54 35.86 106.54C20.14 106.54 7.98 96.82 7.98 77.58C7.98 62.50 16.14 52.26 27.86 47.26C38.06 42.82 52.38 42.06 60.78 41.10L60.78 38.78C60.78 34.54 61.14 29.50 58.74 25.86C56.58 22.58 52.54 21.22 49.02 21.22C42.42 21.22 36.54 25.62 35.14 32.62C34.86 34.14 33.74 35.62 32.22 35.70L12.18 33.54C10.82 33.22 9.30 32.10 9.66 30.06C14.30 5.22 36.94 -1.70 57.50 -1.70C68.02 -1.70 81.74 1.14 90.02 9.22C100.54 19.02 99.50 32.26 99.50 46.54L99.50 77.54C99.50 87.30 103.62 91.62 107.50 96.94C108.82 98.82 109.10 101.06 107.42 102.42C103.30 105.90 95.98 112.18 91.94 115.86L91.90 115.82C91.10 116.50 81.74 105.10 81.74 105.10Z"/>
</svg>
